<svg xmlns="http://www.w3.org/2000/svg" viewBox="0 0 172.46 166.51"><defs><style>.cls-1{fill:#f4edf1;}.cls-2{fill:#725037;stroke:#fff;stroke-miterlimit:10;}.cls-3{fill:#ddcece;}</style></defs><title>Ativo 9</title><g id="Camada_2" data-name="Camada 2"><g id="Camada_1-2" data-name="Camada 1"><path class="cls-1" d="M171.5,80.51h0A85.75,85.75,0,0,1,86,166h0A85.76,85.76,0,0,1,.54,83q0-1.25,0-2.5h0S.5-1,.5,0h171v80.5"/><path class="cls-2" d="M171.5,80.51h0A85.75,85.75,0,0,1,86,166h0A85.76,85.76,0,0,1,.54,83q0-1.25,0-2.5h0"/><path class="cls-3" d="M172.46,46.13c0-6.7-6.43-12.13-13.13-12.13a12.13,12.13,0,0,0-12.13,12.13,12.13,12.13,0,0,1-24.25,0h-.21a12.13,12.13,0,1,0-24.25,0,12.13,12.13,0,1,1-24.25,0H74a12.13,12.13,0,1,0-24.25,0,12.13,12.13,0,0,1-24.25,0h-.38a12.13,12.13,0,0,0-24.25,0v37.2H172.08"/></g></g></svg>