<svg xmlns="http://www.w3.org/2000/svg" viewBox="0 0 172 166.51"><defs><style>.cls-1{fill:#f4edf1;}.cls-2,.cls-3{fill:#725037;}.cls-2{stroke:#fff;stroke-miterlimit:10;}</style></defs><title>Ativo 2</title><g id="Camada_2" data-name="Camada 2"><g id="Camada_1-2" data-name="Camada 1"><path class="cls-1" d="M171.5,80.51h0A85.75,85.75,0,0,1,86,166h0A85.76,85.76,0,0,1,.54,83q0-1.25,0-2.5h0S.5-1,.5,0h171v80.5"/><path class="cls-2" d="M171.5,80.51h0A85.75,85.75,0,0,1,86,166h0A85.76,85.76,0,0,1,.54,83q0-1.25,0-2.5h0"/><polyline class="cls-3" points="0.54 83.01 0.54 45.68 171.07 45.68 171.07 80.51"/></g></g></svg>