<svg xmlns="http://www.w3.org/2000/svg" viewBox="0 0 173.04 166.51"><defs><style>.cls-1{fill:#f4edf1;}.cls-2{fill:#ddc47c;}.cls-3{fill:#fff;}.cls-4{fill:#725037;stroke:#fff;stroke-miterlimit:10;}</style></defs><title>Ativo 8</title><g id="Camada_2" data-name="Camada 2"><g id="Camada_1-2" data-name="Camada 1"><path class="cls-1" d="M172.54,80.51h0A85.75,85.75,0,0,1,87,166h0A85.76,85.76,0,0,1,1.58,83q0-1.25,0-2.5h0S1.54-1,1.54,0h171v80.5"/><rect class="cls-2" x="1.9" y="59.82" width="169.94" height="20.89"/><rect class="cls-3" x="1.9" y="38.93" width="169.94" height="20.89"/><path class="cls-4" d="M172.54,80.51h0A85.75,85.75,0,0,1,87,166h0A85.76,85.76,0,0,1,1.58,83q0-1.25,0-2.5h0"/><path class="cls-3" d="M171.61,19.65c0-6.7-6.43-12.13-13.13-12.13a12.13,12.13,0,0,0-12.13,12.13,12.13,12.13,0,1,1-24.25,0h-.21a12.13,12.13,0,0,0-24.25,0,12.13,12.13,0,1,1-24.25,0h-.26a12.13,12.13,0,0,0-24.25,0,12.13,12.13,0,1,1-24.25,0h-.38A12.13,12.13,0,0,0,0,19.65v20.2H171.22"/></g></g></svg>